<svg width="1280" height="720" viewBox="0 0 1280 720" fill="none" xmlns="http://www.w3.org/2000/svg">
<rect width="1280" height="720" fill="#1E1E1E"/>
<g id="TV - 1">
<g id="eFidonCodes.">
<path d="M351.376 388.96C347.088 388.96 343.28 388.288 339.952 386.944C336.624 385.536 333.776 383.648 331.408 381.28C329.104 378.912 327.344 376.192 326.128 373.12C324.912 369.984 324.304 366.72 324.304 363.328C324.304 358.464 325.36 354.048 327.472 350.08C329.648 346.048 332.752 342.816 336.784 340.384C340.816 337.888 345.68 336.64 351.376 336.64C357.072 336.64 361.904 337.856 365.872 340.288C369.904 342.72 372.976 345.92 375.088 349.888C377.2 353.792 378.256 358.048 378.256 362.656C378.256 363.552 378.192 364.448 378.064 365.344C378 366.176 377.936 366.912 377.872 367.552H340.624C340.816 369.792 341.424 371.68 342.448 373.216C343.536 374.752 344.912 375.936 346.576 376.768C348.24 377.536 350 377.92 351.856 377.92C354.16 377.92 356.304 377.376 358.288 376.288C360.336 375.2 361.744 373.728 362.512 371.872L375.568 375.52C374.288 378.144 372.464 380.48 370.096 382.528C367.792 384.512 365.04 386.08 361.84 387.232C358.704 388.384 355.216 388.96 351.376 388.96ZM340.24 358.144H362.128C361.872 356.032 361.264 354.208 360.304 352.672C359.344 351.072 358.064 349.856 356.464 349.024C354.864 348.128 353.104 347.68 351.184 347.68C349.2 347.68 347.408 348.128 345.808 349.024C344.272 349.856 343.024 351.072 342.064 352.672C341.104 354.208 340.496 356.032 340.24 358.144ZM385.997 388V319.84H432.269V333.664H401.741V348.352H426.893V361.12H401.741V388H385.997ZM439.405 388V337.6H454.765V388H439.405ZM439.405 331.84V317.92H454.765V331.84H439.405ZM462.4 362.752C462.4 357.824 463.36 353.408 465.28 349.504C467.2 345.536 469.824 342.4 473.152 340.096C476.48 337.792 480.32 336.64 484.672 336.64C488.192 336.64 491.392 337.504 494.272 339.232C497.152 340.896 499.328 343.104 500.8 345.856V317.92H516.16V370.912C516.16 372.448 516.416 373.536 516.928 374.176C517.44 374.752 518.272 375.104 519.424 375.232V388C516.736 388.512 514.56 388.768 512.896 388.768C510.272 388.768 508.128 388.192 506.464 387.04C504.864 385.888 503.872 384.288 503.488 382.24L503.2 379.648C501.408 382.784 498.976 385.12 495.904 386.656C492.832 388.192 489.6 388.96 486.208 388.96C482.752 388.96 479.552 388.32 476.608 387.04C473.728 385.696 471.2 383.84 469.024 381.472C466.912 379.104 465.28 376.32 464.128 373.12C462.976 369.92 462.4 366.464 462.4 362.752ZM500.896 368.992V358.432C500.256 356.704 499.328 355.2 498.112 353.92C496.96 352.64 495.616 351.616 494.08 350.848C492.608 350.08 491.104 349.696 489.568 349.696C487.904 349.696 486.368 350.048 484.96 350.752C483.616 351.456 482.432 352.448 481.408 353.728C480.384 354.944 479.584 356.352 479.008 357.952C478.496 359.552 478.24 361.248 478.24 363.04C478.24 364.896 478.528 366.624 479.104 368.224C479.744 369.76 480.608 371.136 481.696 372.352C482.784 373.504 484.064 374.4 485.536 375.04C487.008 375.68 488.608 376 490.336 376C491.424 376 492.48 375.84 493.504 375.52C494.528 375.136 495.488 374.656 496.384 374.08C497.344 373.504 498.208 372.768 498.976 371.872C499.744 370.976 500.384 370.016 500.896 368.992ZM552.093 388.96C547.805 388.96 543.965 388.256 540.573 386.848C537.245 385.44 534.429 383.52 532.125 381.088C529.821 378.656 528.061 375.872 526.845 372.736C525.693 369.6 525.117 366.304 525.117 362.848C525.117 359.328 525.693 356 526.845 352.864C528.061 349.728 529.821 346.944 532.125 344.512C534.429 342.08 537.245 340.16 540.573 338.752C543.965 337.344 547.805 336.64 552.093 336.64C556.381 336.64 560.189 337.344 563.517 338.752C566.845 340.16 569.661 342.08 571.965 344.512C574.269 346.944 576.029 349.728 577.245 352.864C578.461 356 579.069 359.328 579.069 362.848C579.069 366.304 578.461 369.6 577.245 372.736C576.029 375.872 574.269 378.656 571.965 381.088C569.661 383.52 566.845 385.44 563.517 386.848C560.189 388.256 556.381 388.96 552.093 388.96ZM540.861 362.848C540.861 365.472 541.341 367.776 542.301 369.76C543.325 371.744 544.669 373.28 546.333 374.368C547.997 375.456 549.917 376 552.093 376C554.205 376 556.093 375.456 557.757 374.368C559.485 373.216 560.829 371.648 561.789 369.664C562.749 367.68 563.229 365.408 563.229 362.848C563.229 360.224 562.749 357.92 561.789 355.936C560.829 353.952 559.485 352.416 557.757 351.328C556.093 350.24 554.205 349.696 552.093 349.696C549.917 349.696 547.997 350.24 546.333 351.328C544.669 352.416 543.325 353.952 542.301 355.936C541.341 357.92 540.861 360.224 540.861 362.848ZM635.262 388H619.902V359.68C619.902 356.352 619.262 353.952 617.982 352.48C616.766 350.944 615.134 350.176 613.086 350.176C611.678 350.176 610.238 350.56 608.766 351.328C607.294 352.096 605.95 353.152 604.734 354.496C603.582 355.84 602.686 357.376 602.046 359.104V388H586.686V337.6H600.51V346.048C601.79 344.064 603.39 342.368 605.31 340.96C607.23 339.552 609.438 338.496 611.934 337.792C614.43 337.024 617.15 336.64 620.094 336.64C623.358 336.64 625.982 337.248 627.966 338.464C630.014 339.616 631.55 341.152 632.574 343.072C633.662 344.992 634.366 347.072 634.686 349.312C635.07 351.488 635.262 353.632 635.262 355.744V388Z" fill="white"/>
<path d="M642.311 353.344C642.311 349.184 643.079 345.12 644.615 341.152C646.151 337.12 648.391 333.472 651.335 330.208C654.279 326.944 657.863 324.352 662.087 322.432C666.311 320.448 671.111 319.456 676.487 319.456C682.887 319.456 688.423 320.832 693.095 323.584C697.831 326.336 701.351 329.92 703.655 334.336L691.559 342.784C690.535 340.352 689.159 338.464 687.431 337.12C685.767 335.776 683.911 334.848 681.863 334.336C679.879 333.76 677.959 333.472 676.103 333.472C673.095 333.472 670.471 334.08 668.231 335.296C665.991 336.448 664.135 338.016 662.663 340C661.191 341.984 660.103 344.192 659.399 346.624C658.695 349.056 658.343 351.488 658.343 353.92C658.343 356.608 658.759 359.2 659.591 361.696C660.423 364.192 661.607 366.4 663.143 368.32C664.743 370.24 666.663 371.776 668.903 372.928C671.143 374.016 673.607 374.56 676.295 374.56C678.215 374.56 680.167 374.24 682.151 373.6C684.135 372.96 685.959 371.968 687.623 370.624C689.351 369.216 690.663 367.392 691.559 365.152L704.423 372.736C703.079 376.064 700.871 378.912 697.799 381.28C694.727 383.648 691.239 385.472 687.335 386.752C683.495 387.968 679.687 388.576 675.911 388.576C670.983 388.576 666.439 387.584 662.279 385.6C658.183 383.552 654.631 380.864 651.623 377.536C648.679 374.144 646.375 370.368 644.711 366.208C643.111 361.984 642.311 357.696 642.311 353.344ZM734.718 388.96C730.43 388.96 726.59 388.256 723.198 386.848C719.87 385.44 717.054 383.52 714.75 381.088C712.446 378.656 710.686 375.872 709.47 372.736C708.318 369.6 707.742 366.304 707.742 362.848C707.742 359.328 708.318 356 709.47 352.864C710.686 349.728 712.446 346.944 714.75 344.512C717.054 342.08 719.87 340.16 723.198 338.752C726.59 337.344 730.43 336.64 734.718 336.64C739.006 336.64 742.814 337.344 746.142 338.752C749.47 340.16 752.286 342.08 754.59 344.512C756.894 346.944 758.654 349.728 759.87 352.864C761.086 356 761.694 359.328 761.694 362.848C761.694 366.304 761.086 369.6 759.87 372.736C758.654 375.872 756.894 378.656 754.59 381.088C752.286 383.52 749.47 385.44 746.142 386.848C742.814 388.256 739.006 388.96 734.718 388.96ZM723.486 362.848C723.486 365.472 723.966 367.776 724.926 369.76C725.95 371.744 727.294 373.28 728.958 374.368C730.622 375.456 732.542 376 734.718 376C736.83 376 738.718 375.456 740.382 374.368C742.11 373.216 743.454 371.648 744.414 369.664C745.374 367.68 745.854 365.408 745.854 362.848C745.854 360.224 745.374 357.92 744.414 355.936C743.454 353.952 742.11 352.416 740.382 351.328C738.718 350.24 736.83 349.696 734.718 349.696C732.542 349.696 730.622 350.24 728.958 351.328C727.294 352.416 725.95 353.952 724.926 355.936C723.966 357.92 723.486 360.224 723.486 362.848ZM766.431 362.752C766.431 357.824 767.391 353.408 769.311 349.504C771.231 345.536 773.855 342.4 777.183 340.096C780.511 337.792 784.351 336.64 788.703 336.64C792.223 336.64 795.423 337.504 798.303 339.232C801.183 340.896 803.359 343.104 804.831 345.856V317.92H820.191V370.912C820.191 372.448 820.447 373.536 820.959 374.176C821.471 374.752 822.303 375.104 823.455 375.232V388C820.767 388.512 818.591 388.768 816.927 388.768C814.303 388.768 812.159 388.192 810.495 387.04C808.895 385.888 807.903 384.288 807.519 382.24L807.231 379.648C805.439 382.784 803.007 385.12 799.935 386.656C796.863 388.192 793.631 388.96 790.239 388.96C786.783 388.96 783.583 388.32 780.639 387.04C777.759 385.696 775.231 383.84 773.055 381.472C770.943 379.104 769.311 376.32 768.159 373.12C767.007 369.92 766.431 366.464 766.431 362.752ZM804.927 368.992V358.432C804.287 356.704 803.359 355.2 802.143 353.92C800.991 352.64 799.647 351.616 798.111 350.848C796.639 350.08 795.135 349.696 793.599 349.696C791.935 349.696 790.399 350.048 788.991 350.752C787.647 351.456 786.463 352.448 785.439 353.728C784.415 354.944 783.615 356.352 783.039 357.952C782.527 359.552 782.271 361.248 782.271 363.04C782.271 364.896 782.559 366.624 783.135 368.224C783.775 369.76 784.639 371.136 785.727 372.352C786.815 373.504 788.095 374.4 789.567 375.04C791.039 375.68 792.639 376 794.367 376C795.455 376 796.511 375.84 797.535 375.52C798.559 375.136 799.519 374.656 800.415 374.08C801.375 373.504 802.239 372.768 803.007 371.872C803.775 370.976 804.415 370.016 804.927 368.992ZM856.22 388.96C851.932 388.96 848.124 388.288 844.796 386.944C841.468 385.536 838.62 383.648 836.252 381.28C833.948 378.912 832.188 376.192 830.972 373.12C829.756 369.984 829.148 366.72 829.148 363.328C829.148 358.464 830.204 354.048 832.316 350.08C834.492 346.048 837.596 342.816 841.628 340.384C845.66 337.888 850.524 336.64 856.22 336.64C861.916 336.64 866.748 337.856 870.716 340.288C874.748 342.72 877.82 345.92 879.932 349.888C882.044 353.792 883.1 358.048 883.1 362.656C883.1 363.552 883.036 364.448 882.908 365.344C882.844 366.176 882.78 366.912 882.716 367.552H845.468C845.66 369.792 846.268 371.68 847.292 373.216C848.38 374.752 849.756 375.936 851.42 376.768C853.084 377.536 854.844 377.92 856.7 377.92C859.004 377.92 861.148 377.376 863.132 376.288C865.18 375.2 866.588 373.728 867.356 371.872L880.412 375.52C879.132 378.144 877.308 380.48 874.94 382.528C872.636 384.512 869.884 386.08 866.684 387.232C863.548 388.384 860.06 388.96 856.22 388.96ZM845.084 358.144H866.972C866.716 356.032 866.108 354.208 865.148 352.672C864.188 351.072 862.908 349.856 861.308 349.024C859.708 348.128 857.948 347.68 856.028 347.68C854.044 347.68 852.252 348.128 850.652 349.024C849.116 349.856 847.868 351.072 846.908 352.672C845.948 354.208 845.34 356.032 845.084 358.144ZM909.451 388.96C905.163 388.96 900.971 388.256 896.875 386.848C892.779 385.44 889.323 383.36 886.507 380.608L891.787 370.912C894.859 373.152 897.835 374.848 900.715 376C903.659 377.152 906.411 377.728 908.971 377.728C910.955 377.728 912.491 377.408 913.579 376.768C914.667 376.128 915.211 375.136 915.211 373.792C915.211 372.832 914.891 372.096 914.251 371.584C913.611 371.008 912.619 370.496 911.275 370.048C909.995 369.6 908.395 369.12 906.475 368.608C902.635 367.328 899.435 366.08 896.875 364.864C894.315 363.648 892.395 362.176 891.115 360.448C889.835 358.656 889.195 356.352 889.195 353.536C889.195 350.144 890.027 347.2 891.691 344.704C893.419 342.144 895.851 340.16 898.987 338.752C902.123 337.344 905.867 336.64 910.219 336.64C913.675 336.64 917.035 337.184 920.299 338.272C923.627 339.36 926.731 341.184 929.611 343.744L923.659 353.344C920.779 351.36 918.219 349.92 915.979 349.024C913.739 348.128 911.563 347.68 909.451 347.68C908.363 347.68 907.371 347.808 906.475 348.064C905.579 348.32 904.843 348.768 904.267 349.408C903.755 349.984 903.499 350.752 903.499 351.712C903.499 352.672 903.755 353.44 904.267 354.016C904.843 354.592 905.707 355.104 906.859 355.552C908.075 355.936 909.579 356.416 911.371 356.992C915.531 358.208 918.987 359.456 921.739 360.736C924.491 361.952 926.539 363.488 927.883 365.344C929.291 367.136 929.995 369.536 929.995 372.544C929.995 377.664 928.139 381.696 924.427 384.64C920.779 387.52 915.787 388.96 909.451 388.96ZM937.778 388V372.352H950.354V388H937.778Z" fill="#84CC16"/>
</g>
</g>
</svg>
