<svg width="209" height="53" viewBox="0 0 209 53" fill="none" xmlns="http://www.w3.org/2000/svg">
<path d="M26.5 53C11.891 53 0 41.109 0 26.5V0H26.5C41.109 0 53 11.891 53 26.5C53 41.109 41.1124 53 26.5 53ZM1.13135 1.13135V26.5C1.13135 40.4889 12.5128 51.8687 26.5 51.8687C40.4872 51.8687 51.8687 40.4872 51.8687 26.5C51.8687 12.5128 40.4872 1.13135 26.5 1.13135H1.13135Z" fill="white"/>
<path d="M33.7212 42.0161C33.7346 43.3463 33.361 44.6518 32.6459 45.7736C32.0811 46.6541 31.3073 47.3812 30.3934 47.8902C29.1099 48.1183 27.8087 48.232 26.5051 48.23C20.7383 48.23 15.2077 45.9392 11.13 41.8614C7.05231 37.7837 4.76147 32.2532 4.76147 26.4864V4.76489H19.2312C16.2074 5.53498 13.7981 6.8798 12.0031 8.79935C9.98634 10.9101 8.87915 13.7284 8.91994 16.6474C8.89216 18.1285 9.20361 19.5962 9.83045 20.9384C10.4435 22.1872 11.2755 23.316 12.2868 24.2713C13.3477 25.2744 14.4999 26.1764 15.7284 26.9654C16.99 27.7865 18.2974 28.5792 19.6507 29.3436C20.3801 29.7445 21.093 30.1539 21.7894 30.5718C22.4859 30.9846 23.1756 31.3923 23.867 31.7932C25.5419 32.7275 27.12 33.689 28.6081 34.6912C29.9849 35.5954 31.2207 36.6978 32.2756 37.9629C33.2214 39.1006 33.7336 40.5366 33.7212 42.0161Z" fill="white"/>
<path d="M48.235 26.5001C48.2396 29.3544 47.6801 32.1815 46.5887 34.8189C45.4972 37.4563 43.8953 39.852 41.875 41.8684C40.9102 42.8372 39.8544 43.711 38.7222 44.4776C39.4464 43.7856 40.0559 42.9828 40.528 42.0994C41.3964 40.4398 41.8399 38.5908 41.819 36.7178C41.819 34.9019 41.4911 33.3204 40.8337 31.992C40.1909 30.6737 39.3018 29.4905 38.2143 28.5062C37.0786 27.4865 35.8332 26.596 34.5009 25.8511C33.1148 25.0765 31.6941 24.324 30.2388 23.5936C29.0056 22.9871 27.8063 22.3654 26.6341 21.7148L25.3329 20.9894C23.7531 20.1593 22.2984 19.31 20.9689 18.4413C19.7295 17.6566 18.6371 16.6608 17.7414 15.4992C16.926 14.412 16.5132 13.104 16.5132 11.5921C16.5231 10.194 16.8599 8.81763 17.4967 7.57294C18.0765 6.41175 18.9736 5.4387 20.0839 4.76666H26.5135C32.2758 4.76891 37.8012 7.05978 41.8747 11.1354C45.9481 15.2111 48.2359 20.7378 48.235 26.5001Z" fill="white"/>
<path d="M71.093 21.0744C71.4859 20.7816 71.9293 20.5633 72.401 20.4306C73.4707 20.1205 74.6064 20.1205 75.6761 20.4306C76.1525 20.5686 76.6014 20.7882 77.0028 21.0795C77.3139 21.3065 77.5776 21.5921 77.7791 21.9203C77.935 22.1776 78.0248 22.4694 78.0407 22.7697L78.0917 24.0454L80.7757 22.5455L80.6806 21.9968C80.4767 20.8179 79.7921 19.7783 78.6421 18.9C77.2985 17.9516 75.688 17.4554 74.0437 17.4833C73.2073 17.4806 72.3752 17.6037 71.5754 17.8485C70.8093 18.0815 70.0867 18.439 69.4367 18.9068C68.8064 19.358 68.2779 19.9368 67.8858 20.6055C67.5056 21.2609 67.3058 22.0053 67.3065 22.7629C67.305 23.7061 67.6024 24.6255 68.1559 25.3891C68.7374 26.1924 69.5129 26.8352 70.4101 27.2577C71.0801 27.5671 71.7913 27.7782 72.5216 27.8845C73.2673 28.0052 73.6988 28.0731 73.8381 28.0935C75.5063 28.2888 76.2401 28.5284 76.5561 28.6897C76.9962 28.9145 77.38 29.2356 77.6789 29.6291C77.9015 29.9221 78.0209 30.2804 78.0187 30.6483C78.0187 31.2973 77.6925 31.8375 76.9875 32.3573C76.1993 32.945 75.2022 33.244 74.025 33.244C73.4649 33.2474 72.9075 33.1684 72.3704 33.0096C71.8969 32.8731 71.4523 32.6508 71.059 32.3539L71.0386 32.3403C70.371 31.8816 70.0432 31.3465 70.0058 30.6568L69.9379 29.4015L67.2505 30.9015L67.3592 31.4603C67.6021 32.6868 68.2935 33.7298 69.4214 34.5605C70.0701 35.028 70.7916 35.3851 71.5567 35.6171C72.3567 35.8611 73.1886 35.9842 74.025 35.9823C75.6735 36.0102 77.2879 35.5115 78.6336 34.5588C79.2731 34.0986 79.8019 33.5014 80.1811 32.8108C80.5421 32.1472 80.7314 31.4038 80.7315 30.6483C80.7301 29.7589 80.4569 28.8912 79.9484 28.1614C79.4058 27.3893 78.6918 26.7532 77.8624 26.303C77.4525 26.0814 77.0173 25.9103 76.5663 25.7934C76.0844 25.6652 75.5955 25.5654 75.102 25.4944L74.1982 25.367C73.5391 25.2838 72.9921 25.1972 72.5743 25.1309C72.2398 25.0751 71.9142 24.9751 71.606 24.8336C71.1442 24.6029 70.7423 24.2679 70.4322 23.8552C70.1758 23.5475 70.0267 23.1646 70.0075 22.7646C70.0093 22.4702 70.0941 22.1823 70.2521 21.9339C70.4713 21.5935 70.7574 21.301 71.093 21.0744Z" fill="white"/>
<path d="M104.077 20.3693C103.509 19.5375 102.739 18.8631 101.84 18.409C100.898 17.9273 99.855 17.6791 98.7975 17.6854H92.1079V20.4254H98.7856C99.3967 20.4181 100.001 20.5518 100.552 20.8161C101.045 21.0464 101.473 21.3969 101.796 21.8353C102.072 22.2117 102.221 22.6664 102.221 23.1331C102.221 23.5999 102.072 24.0545 101.796 24.431C101.473 24.8691 101.045 25.2195 100.552 25.4502C100.001 25.7126 99.3965 25.8462 98.7856 25.8409H92.1215L92.1385 35.7699H94.8564V28.6081H98.7992C99.8559 28.6143 100.899 28.3667 101.84 27.8862C102.745 27.4293 103.518 26.7494 104.087 25.9106C104.648 25.0953 104.948 24.1292 104.948 23.1399C104.948 22.1506 104.648 21.1846 104.087 20.3693H104.077Z" fill="white"/>
<path d="M112.098 35.775H115.098L117.179 31.3159L121.039 22.9922L126.694 35.775H129.651L121.125 16.3638L112.098 35.775Z" fill="white"/>
<path d="M152.344 30.808C151.736 31.5553 150.972 32.1611 150.106 32.5832C149.171 33.0348 148.14 33.2493 147.103 33.2078C146.066 33.1664 145.055 32.8701 144.16 32.3454C143.183 31.7694 142.373 30.95 141.807 29.9671C141.236 28.9738 140.936 27.848 140.936 26.7022C140.936 25.5564 141.236 24.4307 141.807 23.4373C142.374 22.4553 143.184 21.6362 144.16 21.0591C145.03 20.5468 146.011 20.2518 147.019 20.1988C148.027 20.1459 149.034 20.3367 149.953 20.755C150.769 21.1291 151.499 21.6695 152.095 22.3416L152.615 22.9277L154.69 21.0897L154.147 20.5002C153.279 19.5559 152.228 18.7977 151.059 18.2715C149.742 17.6793 148.302 17.412 146.861 17.4921C145.42 17.5722 144.018 17.9974 142.776 18.7318C141.393 19.5424 140.246 20.6994 139.448 22.0885C138.646 23.4951 138.224 25.0864 138.224 26.7056C138.224 28.3248 138.646 29.9161 139.448 31.3227C140.245 32.7178 141.392 33.8803 142.777 34.6947C144.063 35.4521 145.515 35.8802 147.006 35.9409C148.497 36.0017 149.979 35.6932 151.322 35.0429C152.557 34.4443 153.64 33.573 154.49 32.4948L154.984 31.8748L152.84 30.2067L152.344 30.808Z" fill="white"/>
<path d="M178.647 30.808C178.041 31.555 177.278 32.1607 176.414 32.5832C175.479 33.0347 174.448 33.2494 173.411 33.2082C172.374 33.167 171.364 32.8713 170.468 32.347C169.492 31.77 168.682 30.9508 168.115 29.9688C167.544 28.9754 167.244 27.8497 167.244 26.7039C167.244 25.5581 167.544 24.4324 168.115 23.439C168.681 22.4562 169.491 21.6369 170.468 21.0608C171.338 20.5488 172.318 20.2539 173.326 20.201C174.334 20.148 175.34 20.3387 176.259 20.7567C177.076 21.1306 177.806 21.671 178.403 22.3433L178.923 22.9294L180.998 21.0913L180.455 20.5019C179.586 19.5574 178.535 18.7992 177.365 18.2732C176.049 17.6804 174.609 17.4128 173.168 17.4929C171.727 17.5731 170.326 17.9985 169.084 18.7335C167.701 19.5446 166.554 20.7014 165.754 22.0902C164.953 23.4972 164.532 25.0883 164.532 26.7073C164.532 28.3263 164.953 29.9174 165.754 31.3244C166.552 32.7196 167.7 33.882 169.085 34.6964C170.371 35.4538 171.823 35.8819 173.314 35.9426C174.805 36.0034 176.287 35.6949 177.63 35.0446C178.865 34.4455 179.948 33.5743 180.798 32.4965L181.292 31.8765L179.131 30.2169L178.647 30.808Z" fill="white"/>
<path d="M205.169 17.6871L199.076 26.6359L192.961 17.6871H189.694L197.709 29.5135V35.775H200.421V29.5135L208.436 17.6871H205.169Z" fill="white"/>
</svg>
